<svg width="199px" height="58px" viewBox="0 0 199 58" version="1.1" xmlns="http://www.w3.org/2000/svg">
    <g  stroke="none" stroke-width="1" fill="none" fill-rule="evenodd">
        <g  transform="translate(-3.000000, -36.000000)" fill="currentColor" fill-rule="nonzero">
            <g transform="translate(3.000000, 36.000000)">
                <path d="M192.926306,0.325561778 C194.441442,0.325561778 195.894501,0.927389702 196.965724,1.9986086 C198.036947,3.0698275 198.63965,4.52265784 198.63965,6.03739259 L198.63965,51.5279919 C198.63965,53.0419214 198.037678,54.4937573 196.966326,55.5637082 C195.894974,56.6336591 194.442126,57.2339569 192.927796,57.2323789 L6.00535479,57.2323789 C2.85054241,57.2356681 0.290163072,54.6819678 0.286051604,51.5279919 L0.286051604,6.03739259 C0.290160897,2.8822127 2.84933644,0.326380766 6.00535479,0.325561778 L192.926306,0.325561778 Z M89.3844226,31.334771 C87.227207,31.334771 85.6197237,32.1881945 84.5604832,33.8950415 L84.5604832,33.8950415 L84.5008916,33.8950415 L84.3236066,31.6296713 L81.5302506,31.6296713 C81.6077197,33.2352394 81.647944,34.8005938 81.647944,36.3272239 L81.647944,36.3272239 L81.647944,51.7171451 L84.824176,51.7171451 L84.824176,44.21804 C85.6510093,45.5704109 87.0126772,46.2451069 88.9062001,46.2451069 C90.6596827,46.2451069 92.1301053,45.6180715 93.3129985,44.3625113 C94.634442,42.952054 95.2944189,41.0307341 95.2944189,38.6000411 C95.2944189,36.4240346 94.7297886,34.669527 93.6049973,33.3335395 C92.4787161,32.0005307 91.0708647,31.334771 89.3844226,31.334771 Z M105.825743,31.334771 C103.667038,31.334771 102.059555,32.1881945 101.001804,33.8950415 L101.001804,33.8950415 L100.942212,33.8950415 L100.764927,31.6296713 L97.9715713,31.6296713 C98.0490403,33.2352394 98.0892647,34.8005938 98.0892647,36.3272239 L98.0892647,36.3272239 L98.0892647,51.7171451 L101.265497,51.7171451 L101.265497,44.21804 C102.09233,45.5704109 103.453998,46.2451069 105.347521,46.2451069 C107.102493,46.2451069 108.571426,45.6180715 109.755809,44.3625113 C111.077252,42.952054 111.737229,41.0307341 111.737229,38.6000411 C111.737229,36.4240346 111.171109,34.669527 110.047808,33.3335395 C108.918547,32.0005307 107.510696,31.334771 105.825743,31.334771 Z M33.7258743,19.2096042 C32.2033091,19.2096042 29.9045634,17.4863739 27.4270429,17.5370134 C24.2388926,17.5861634 21.2563334,19.4315241 19.6205441,22.2971206 C16.2446803,28.1400182 18.7624252,36.7263819 21.9967589,41.4492542 C23.6146707,43.7637744 25.505214,46.3448964 27.9797549,46.2540433 C30.4006634,46.1557432 31.3049658,44.7125192 34.2264437,44.7125192 C37.1211053,44.7125192 37.9702856,46.2540433 40.4939895,46.1959569 C43.092183,46.1557432 44.7279723,43.8725003 46.289272,41.5386179 C48.1589583,38.8889838 48.9098123,36.2765845 48.9396081,36.1425389 C48.8800165,36.1216874 43.8951797,34.2182402 43.8445269,28.4661958 C43.801323,23.6658748 47.7760823,21.3305031 47.9578366,21.2217772 C45.7067642,17.9406395 42.2176764,17.4923315 40.9915793,17.456586 C38.0611627,17.1482812 35.2186437,19.2096042 33.7258743,19.2096042 Z M149.531708,31.3392392 C147.355125,31.3392392 145.623989,32.0452126 144.3383,33.4571593 C143.055591,34.8676166 142.412002,36.6817 142.412002,38.8964307 C142.412002,41.0128614 143.034734,42.767369 144.280199,44.1599536 C145.525663,45.5495594 147.195717,46.2451069 149.296321,46.2451069 C151.472904,46.2451069 153.218938,45.5212608 154.531442,44.0691005 C155.785846,42.6586432 156.414537,40.8549855 156.414537,38.6581275 C156.414537,36.5193559 155.808192,34.7767635 154.589544,33.4273714 C153.314284,32.0362762 151.629332,31.3392392 149.531708,31.3392392 Z M124.881645,25.8076252 C122.86149,25.8076252 121.237619,26.3274242 120.013012,27.3670221 C118.788405,28.4081093 118.174611,29.7396287 118.174611,31.3660483 C118.174611,33.8563172 119.911706,35.7493386 123.382917,37.043623 C124.659666,37.5127825 125.568438,38.0236451 126.118171,38.5717426 C126.664924,39.1213294 126.943514,39.7960255 126.943514,40.6017883 C126.943514,41.501383 126.606822,42.2222503 125.940886,42.7614114 C125.276439,43.2990831 124.345321,43.5701531 123.14753,43.5701531 C121.481945,43.5701531 119.951931,43.15908 118.558977,42.333955 L118.558977,42.333955 L117.824511,44.9806104 C119.114669,45.8042459 120.824947,46.215319 122.958326,46.215319 C125.267501,46.215319 127.068657,45.6359443 128.358815,44.4801736 C129.531279,43.4212135 130.121236,42.0494805 130.121236,40.3619957 C130.121236,38.9932414 129.718993,37.8449177 128.910037,36.9244714 C128.10704,36.0040252 126.852637,35.2027305 125.145338,34.5146299 C123.753874,33.9665324 122.79147,33.4556699 122.264084,32.9865104 C121.65625,32.4771372 121.350843,31.8277609 121.350843,31.0458283 C121.350843,30.3368762 121.619005,29.7396287 122.147881,29.2496177 C122.776572,28.7015202 123.655548,28.4259821 124.77587,28.4259821 C126.19415,28.4259821 127.461961,28.7298187 128.585263,29.337492 L128.585263,29.337492 L129.3823,26.748923 C128.188979,26.1218876 126.685781,25.8076252 124.881645,25.8076252 Z M137.148575,28.0655484 L134.028955,29.0068462 L134.028955,31.6237137 L131.943249,31.6237137 L131.943249,34.0067461 L134.028955,34.0067461 L134.028955,41.210951 C134.028955,43.016098 134.383525,44.2984673 135.088195,45.0640165 C135.795845,45.8295657 136.776127,46.2123402 138.03053,46.2123402 C139.051036,46.2123402 139.87489,46.094678 140.500602,45.860843 L140.500602,45.860843 L140.412704,43.449512 C140.040257,43.5493015 139.569483,43.5969622 139.001873,43.5969622 C137.765348,43.5969622 137.148575,42.7167296 137.148575,40.9517962 L137.148575,40.9517962 L137.148575,34.0127037 L140.649581,34.0127037 L140.649581,31.6237137 L137.148575,31.6237137 L137.148575,28.0655484 Z M175.008604,31.3124301 C172.91098,31.3124301 171.243905,32.0764899 170.010359,33.6046094 C168.831935,35.0359182 168.243468,36.8306395 168.243468,38.9843051 C168.243468,41.1781843 168.876629,42.9297131 170.139971,44.2329339 C171.406292,45.5346654 173.146366,46.1870205 175.363174,46.1870205 C177.206044,46.1870205 178.803099,45.8936097 180.155828,45.3038091 L180.155828,45.3038091 L179.658238,43.1009935 C178.500671,43.5522803 177.213493,43.7756896 175.802662,43.7756896 C174.527402,43.7756896 173.489018,43.4420651 172.686021,42.7777948 C171.801086,42.0330972 171.339251,40.9517962 171.303496,39.5398495 L171.303496,39.5398495 L180.832192,39.5398495 C180.917532,39.0646684 180.95645,38.5823167 180.948396,38.0996043 C180.948396,36.3167982 180.526785,34.8154877 179.688034,33.6046094 C178.628793,32.0764899 177.068983,31.3124301 175.008604,31.3124301 Z M72.4976548,26.1010361 L68.5556709,26.1010361 L62.1719215,45.9219082 L65.4658468,45.9219082 L67.2312478,40.0998621 L73.673099,40.0998621 L75.5263976,45.9219082 L78.9097103,45.9219082 L72.4976548,26.1010361 Z M165.946212,31.334771 C165.118432,31.3359484 164.313184,31.6044673 163.650446,32.1003202 C162.926408,32.6677798 162.399023,33.425882 162.06233,34.3656904 L162.06233,34.3656904 L161.974432,34.3656904 L161.858229,31.6311607 L159.091689,31.6311607 C159.156092,33.1301037 159.186889,34.6303013 159.184056,36.1306237 L159.184056,36.1306237 L159.184056,45.9219082 L162.360288,45.9219082 L162.360288,38.422803 C162.360288,37.2863945 162.625471,36.3450967 163.152856,35.600399 C163.760691,34.7544225 164.624769,34.3344131 165.742111,34.3344131 C166.077801,34.3332495 166.412899,34.3626625 166.74325,34.4222874 L166.74325,34.4222874 L166.74027,31.3928574 C166.504883,31.3556226 166.239701,31.334771 165.946212,31.334771 Z M149.416994,33.6567382 C150.65203,33.6567382 151.605495,34.2241978 152.271431,35.359117 C152.839041,36.2989254 153.122101,37.4219294 153.122101,38.7311079 C153.122101,40.0432651 152.828613,41.1737161 152.244615,42.1358654 C151.556332,43.287168 150.604356,43.8665427 149.390178,43.8665427 C148.149183,43.8665427 147.191248,43.2990831 146.504455,42.1641639 C145.935355,41.2273343 145.652295,40.1013515 145.652295,38.7906837 C145.652295,37.4412916 145.935355,36.2989254 146.504455,35.359117 C147.168901,34.2241978 148.144713,33.6567382 149.416994,33.6567382 Z M88.3519983,33.8637642 C89.5080752,33.8637642 90.4302551,34.3344131 91.1170482,35.2742215 C91.7457395,36.1782844 92.0585954,37.3251187 92.0585954,38.7162139 C92.0585954,40.2264607 91.7248825,41.4418072 91.0574566,42.3637429 C90.3915206,43.2826998 89.4604019,43.7459017 88.2641007,43.7459017 C87.2450844,43.7459017 86.4167613,43.3869574 85.7791312,42.6720477 C85.1415012,41.9541592 84.8226862,41.0769054 84.8226862,40.0387969 L84.8226862,40.0387969 L84.8226862,37.6542751 C84.8335437,37.3273815 84.8830509,37.0029203 84.9701754,36.6876576 C85.1653378,35.8446599 85.582479,35.1640062 86.220109,34.6427179 C86.8562493,34.1258977 87.5683688,33.8637642 88.3519983,33.8637642 Z M104.794809,33.8637642 C105.950886,33.8637642 106.870086,34.3344131 107.556879,35.2742215 C108.18557,36.1782844 108.499916,37.3251187 108.499916,38.7162139 C108.499916,40.2264607 108.166203,41.4418072 107.498777,42.3637429 C106.834331,43.2826998 105.903212,43.7459017 104.705421,43.7459017 C103.683426,43.7459017 102.855102,43.385468 102.217472,42.6720477 C101.582822,41.9541592 101.262517,41.0769054 101.262517,40.0387969 L101.262517,40.0387969 L101.262517,37.6542751 C101.262517,37.4010779 101.31466,37.0808579 101.411496,36.6876576 C101.606658,35.8446599 102.02231,35.1640062 102.65994,34.6427179 C103.29906,34.1258977 104.011179,33.8637642 104.794809,33.8637642 Z M70.4387653,28.7476915 C70.9274163,30.7077356 71.2611293,31.9528701 71.4384143,32.4816054 L71.4384143,32.4816054 L73.1144278,37.6572539 L67.7899189,37.6572539 L69.4376265,32.4816054 C69.8681758,30.8358236 70.1825214,29.5906892 70.3791737,28.7476915 L70.3791737,28.7476915 Z M174.773217,33.5092881 C175.906947,33.5092881 176.753148,33.9501491 177.30288,34.8348499 C177.733429,35.5214611 177.942,36.3331815 177.919653,37.2759687 L177.919653,37.2759687 L171.304986,37.2729899 C171.401823,36.3153088 171.716168,35.4901838 172.245044,34.8035726 C172.888633,33.9397233 173.734833,33.5092881 174.773217,33.5092881 Z M118.760099,11.8385871 C117.808123,11.8385871 116.997677,12.0411449 116.348129,12.4462604 L116.348129,12.4462604 L116.665454,13.4724537 C117.200289,13.1254246 117.808123,12.9511654 118.500875,12.9511654 C119.469239,12.9511654 119.959379,13.4143673 119.959379,14.3392817 L119.959379,14.3392817 L119.959379,14.4688591 C117.356717,14.4688591 115.853519,15.3654751 115.853519,17.0991312 C115.853519,18.2846898 116.747393,19.1664118 118.006265,19.1664118 C118.888221,19.1664118 119.583952,18.8491706 120.060685,18.1983049 L120.060685,18.1983049 L120.102399,18.1983049 L120.215623,19.0070465 L121.623475,19.0085359 C121.553455,18.5900158 121.522169,18.040429 121.522169,17.3314768 L121.522169,17.3314768 L121.522169,14.7443973 C121.522169,12.806694 120.59552,11.8385871 118.760099,11.8385871 Z M77.3841655,11.8385871 C75.2433375,11.8385871 73.8846492,13.3845794 73.8846492,15.5531389 C73.8846492,17.6338241 75.2150315,19.1664118 77.2679619,19.1664118 C79.365586,19.1664118 80.7674782,17.6338241 80.7674782,15.4384554 C80.7674782,13.2981945 79.4073001,11.8385871 77.3841655,11.8385871 Z M110.676499,11.8385871 C108.537161,11.8385871 107.178472,13.3845794 107.178472,15.5531389 C107.178472,17.6338241 108.510345,19.1664118 110.561785,19.1664118 C112.657919,19.1664118 114.061302,17.6338241 114.059813,15.4384554 C114.059813,13.2981945 112.701123,11.8385871 110.676499,11.8385871 Z M140.460377,11.8385871 C138.321039,11.8385871 136.962351,13.3845794 136.962351,15.5531389 C136.962351,17.6338241 138.292733,19.1664118 140.344174,19.1664118 C142.443288,19.1664118 143.84518,17.6338241 143.843691,15.4384554 C143.843691,13.2981945 142.485002,11.8385871 140.460377,11.8385871 Z M130.435582,8.76000712 L128.872792,8.76000712 L128.872792,12.7918001 L128.841507,12.7918001 C128.466079,12.1543389 127.800143,11.8370977 126.860086,11.8370977 C125.084257,11.8370977 123.78367,13.3845794 123.78367,15.5814374 C123.78367,17.6770165 125.038073,19.1664118 126.731964,19.1664118 C127.785246,19.1664118 128.539079,18.7315084 128.987506,17.8795743 L128.987506,17.8795743 L129.03071,17.8795743 L129.10371,19.0070465 L130.493683,19.0070465 C130.451969,18.4291611 130.435582,17.7931893 130.435582,17.1140251 L130.435582,17.1140251 L130.435582,8.76000712 Z M161.026926,10.233019 L159.493932,10.696221 L159.493932,11.9830585 L158.468957,11.9830585 L158.468957,13.1537231 L159.493932,13.1537231 L159.493932,16.695505 C159.493932,18.473843 160.229889,19.1530072 161.460455,19.1530072 C161.964004,19.1530072 162.369227,19.0949208 162.671654,18.978748 L162.671654,18.978748 L162.62845,17.7931893 C162.442227,17.8363818 162.211309,17.8661697 161.935698,17.8661697 C161.327864,17.8661697 161.026926,17.4327557 161.026926,16.5644383 L161.026926,16.5644383 L161.026926,13.1537231 L162.744654,13.1537231 L162.744654,11.9815691 L161.026926,11.9815691 L161.026926,10.233019 Z M176.610128,11.8236932 C174.619769,11.8236932 173.287897,13.4426658 173.287897,15.5963313 C173.287897,17.7485075 174.588483,19.1366239 176.785923,19.1366239 C177.696185,19.1366239 178.478324,18.9921525 179.142771,18.7032099 L179.142771,18.7032099 L178.899935,17.6189301 C178.336794,17.8348924 177.699164,17.9510652 177.006412,17.9510652 C175.702846,17.9510652 174.82238,17.20041 174.792584,15.8703801 L174.792584,15.8703801 L179.477973,15.8703801 C179.523699,15.6374993 179.541702,15.4000276 179.531606,15.1629173 C179.531606,13.1537231 178.405325,11.8236932 176.610128,11.8236932 Z M66.7202498,9.19186119 C65.8199851,9.18936035 64.9208945,9.25708553 64.0311792,9.3944895 L64.0311792,9.3944895 L64.0311792,18.9772586 C64.6673194,19.0502389 65.4315816,19.0934314 66.315027,19.0934314 C70.0588689,19.0934314 72.0402894,17.2733904 72.0402894,13.9043783 C72.0402894,10.9836742 70.362786,9.19186119 66.7202498,9.19186119 Z M166.470618,8.76000712 L164.910808,8.76000712 L164.910808,19.0070465 L166.470618,19.0070465 L166.470618,14.7726958 C166.470618,13.6601175 167.224452,13.1105307 168.033408,13.1105307 C168.974955,13.1105307 169.450198,13.7465024 169.450198,15.003552 L169.450198,15.003552 L169.450198,19.0070465 L171.010008,19.0070465 L171.010008,14.8292928 C171.010008,12.9928684 170.101236,11.8370977 168.614426,11.8370977 C167.705654,11.8370977 166.993534,12.2139147 166.501904,12.9794639 L166.501904,12.9794639 L166.470618,12.9794639 L166.470618,8.76000712 Z M83.8990165,11.9830585 L82.2945128,11.9830585 L84.3623411,19.0070465 L85.808927,19.0070465 L86.7772904,15.956765 C87.0082079,15.2210037 87.2257172,14.4539652 87.340431,13.688416 L87.340431,13.688416 L87.3702268,13.688416 C87.5200758,14.4535628 87.7085265,15.2106457 87.9348571,15.956765 L87.9348571,15.956765 L88.8451187,19.0070465 L90.2768068,19.0070465 L92.4742468,11.9830585 L90.941253,11.9845478 L90.0876035,15.2656856 C89.8715839,16.0893212 89.7121764,16.8563597 89.6108707,17.5787164 L89.6108707,17.5787164 L89.5691566,17.5787164 C89.4231572,16.8414658 89.2354437,16.0610227 89.0045262,15.2656856 L89.0045262,15.2656856 L88.049571,11.9845478 L86.7772904,11.9845478 L85.7791312,15.3371766 C85.5035201,16.2471971 85.3158066,16.9859371 85.2010928,17.577227 L85.2010928,17.577227 L85.171297,17.577227 C85.0401955,16.8682749 84.8822778,16.1176197 84.6945642,15.3222826 L84.6945642,15.3222826 L83.8990165,11.9830585 Z M98.12204,11.8385871 C97.1670848,11.8385871 96.314925,12.3151936 95.8948042,13.0658488 L95.8948042,13.0658488 L95.8516003,13.0658488 L95.7786006,11.9815691 L94.4050144,11.9815691 C94.4482183,12.7039258 94.4631162,13.3696854 94.4631162,13.9907633 L94.4631162,13.9907633 L94.4631162,19.0070465 L96.024416,19.0070465 L96.024416,14.8292928 C96.024416,13.9043783 96.6605562,13.1090413 97.5857157,13.1090413 C98.5257731,13.1090413 99.0025058,13.7316085 99.0025058,14.9737641 L99.0025058,14.9737641 L99.0025058,19.0070465 L100.563806,19.0070465 L100.565295,14.8009943 C100.565295,12.9660593 99.596932,11.8385871 98.12204,11.8385871 Z M149.795401,11.8370977 C148.841935,11.8370977 147.988286,12.3151936 147.569655,13.0658488 L147.569655,13.0658488 L147.526451,13.0658488 L147.453451,11.9815691 L146.079865,11.9815691 C146.123069,12.7039258 146.137967,13.3696854 146.137967,13.9907633 L146.137967,13.9907633 L146.137967,19.0070465 L147.700756,19.0070465 L147.700756,14.8292928 C147.700756,13.9043783 148.335407,13.1090413 149.260566,13.1090413 C150.200623,13.1090413 150.677356,13.7316085 150.677356,14.9737641 L150.677356,14.9737641 L150.677356,19.0070465 L152.240146,19.0070465 L152.240146,14.7995049 C152.240146,12.9645699 151.270293,11.8370977 149.795401,11.8370977 Z M104.869298,8.76000712 L103.306509,8.76000712 L103.306509,19.0070465 L104.869298,19.0070465 L104.869298,8.76000712 Z M120.001094,15.508457 L120.001094,16.5927368 C120.001094,17.4163723 119.262158,18.0225562 118.4681,18.0225562 C117.845368,18.0225562 117.396941,17.6621226 117.396941,16.9248719 C117.396941,15.9284665 118.266978,15.508457 120.001094,15.508457 L120.001094,15.508457 Z M77.3275535,12.9794639 C78.4255286,12.9794639 79.1480767,14.0488497 79.1480767,15.4786691 C79.1480767,16.8816795 78.4106307,18.0091517 77.3126556,18.0091517 C76.2146805,18.0091517 75.4772345,16.9546598 75.4772345,15.508457 C75.4772345,14.0339557 76.1997826,12.9794639 77.3275535,12.9794639 Z M110.619887,12.9794639 C111.719352,12.9794639 112.44041,14.0488497 112.438923,15.4786691 C112.438923,16.8816795 111.702964,18.0091517 110.603499,18.0091517 C109.508504,18.0091517 108.769568,16.9546598 108.769568,15.508457 C108.769568,14.0339557 109.492116,12.9794639 110.619887,12.9794639 Z M140.402276,12.9794639 C141.50323,12.9794639 142.225778,14.0488497 142.222808,15.4786691 C142.222808,16.8816795 141.486843,18.0091517 140.387378,18.0091517 C139.290892,18.0091517 138.553446,16.9546598 138.553446,15.508457 C138.553446,14.0339557 139.275995,12.9794639 140.402276,12.9794639 Z M127.228064,13.0524442 C128.221754,13.0524442 128.872792,13.8909738 128.872792,14.8739746 L128.872792,14.8739746 L128.872792,16.0446393 C128.872792,17.0559387 128.17855,17.9093622 127.196779,17.9093622 C126.097314,17.9093622 125.362847,16.9397659 125.362847,15.523351 C125.362847,14.0786376 126.070497,13.0524442 127.228064,13.0524442 Z M66.8483718,10.4206828 C69.1620154,10.4206828 70.391092,11.6792218 70.391092,13.9475708 C70.391092,16.4914579 69.0324037,17.8497864 66.6457604,17.8497864 C66.1392318,17.8497864 65.7787027,17.8363818 65.5909891,17.8065939 L65.5909891,17.8065939 L65.5909891,10.5219617 C65.9381102,10.4504707 66.3567411,10.4206828 66.8483718,10.4206828 Z M41.0228649,8.25957031 C39.1382808,8.34297644 36.7814333,9.56279116 35.4242347,11.1549547 C34.2234641,12.557965 33.1508154,14.8575913 33.4279163,17.0201932 C35.5449077,17.1780691 37.7185111,15.9522968 39.0771994,14.3497075 C40.3792757,12.7217985 41.27017,10.5070678 41.0228649,8.25957031 Z M176.501373,12.9079729 C177.499532,12.9079729 178.046285,13.6735221 178.046285,14.7578018 L178.046285,14.7578018 L174.794074,14.7578018 C174.89538,13.688416 175.60452,12.9079729 176.501373,12.9079729 Z" id="Combined-Shape"></path>
            </g>
        </g>
    </g>
</svg>