<svg width="175px" height="95px" viewBox="0 0 175 95" version="1.1" xmlns="http://www.w3.org/2000/svg">
    <g stroke="none" stroke-width="1" fill="none" fill-rule="evenodd">
        <g  transform="translate(-84.000000, -217.000000)" fill="currentColor" fill-rule="nonzero">
            <path d="M101.8,311.5 C106.066667,311.5 109.883333,310.366667 113.25,308.1 C116.616667,305.833333 119.733333,302.933333 122.6,299.4 C123.866667,297.933333 124.5,295.866667 124.5,293.2 C124.5,291.8 124.25,290.7 123.75,289.9 C123.25,289.1 122.566667,288.7 121.7,288.7 C120.7,288.7 119.8,289.166667 119,290.1 C115.8,293.9 113.166667,296.583333 111.1,298.15 C109.033333,299.716667 106.633333,300.5 103.9,300.5 C102.166667,300.5 100.766667,299.916667 99.7,298.75 C98.6333333,297.583333 97.8666667,295.633333 97.4,292.9 C104.933333,282.633333 110.9,272.266667 115.3,261.8 C119.7,251.333333 121.9,242.133333 121.9,234.2 C121.9,228.666667 120.983333,224.416667 119.15,221.45 C117.316667,218.483333 114.8,217 111.6,217 C105.933333,217 101.05,220.733333 96.95,228.2 C92.85,235.666667 89.75,244.6 87.65,255 C85.55,265.4 84.5,274.666667 84.5,282.8 C84.5,291.266667 85.9166667,298.166667 88.75,303.5 C91.5833333,308.833333 95.9333333,311.5 101.8,311.5 Z M96.7,279.4 C96.8333333,271.866667 97.6333333,264 99.1,255.8 C100.566667,247.6 102.266667,240.733333 104.2,235.2 C106.133333,229.666667 107.866667,226.9 109.4,226.9 C111.266667,226.9 112.2,229.433333 112.2,234.5 C112.2,240.966667 110.8,248.116667 108,255.95 C105.2,263.783333 101.433333,271.6 96.7,279.4 Z M151,311.5 C153.866667,311.5 156.833333,310.333333 159.9,308 C162.966667,305.666667 165.866667,302.8 168.6,299.4 C169.866667,297.933333 170.5,295.866667 170.5,293.2 C170.5,291.8 170.25,290.7 169.75,289.9 C169.25,289.1 168.566667,288.7 167.7,288.7 C166.7,288.7 165.8,289.166667 165,290.1 C161.933333,293.766667 159.5,296.416667 157.7,298.05 C155.9,299.683333 154.366667,300.5 153.1,300.5 C152.3,300.5 151.65,300.2 151.15,299.6 C150.65,299 150.4,298.2 150.4,297.2 C150.4,294.2 151.166667,288.866667 152.7,281.2 C153.7,275.933333 154.2,272.6 154.2,271.2 C154.2,268.866667 152.566667,267.7 149.3,267.7 C147.766667,267.7 146.3,267.833333 144.9,268.1 C144.566667,266.633333 144.15,265.616667 143.65,265.05 C143.15,264.483333 142.166667,264.2 140.7,264.2 C136.1,264.2 131.75,265.65 127.65,268.55 C123.55,271.45 120.266667,275.283333 117.8,280.05 C115.333333,284.816667 114.1,289.866667 114.1,295.2 C114.1,300.066667 115.333333,304 117.8,307 C120.266667,310 123.566667,311.5 127.7,311.5 C132.966667,311.5 137.333333,308.7 140.8,303.1 C141.733333,305.7 143.116667,307.75 144.95,309.25 C146.783333,310.75 148.8,311.5 151,311.5 Z M131.3,301.4 C129.833333,301.4 128.683333,300.9 127.85,299.9 C127.016667,298.9 126.6,297.366667 126.6,295.3 C126.6,291.566667 127.3,288.033333 128.7,284.7 C130.1,281.366667 131.983333,278.683333 134.35,276.65 C136.716667,274.616667 139.3,273.566667 142.1,273.5 L142.1,273.5 L138.4,291.9 C137.8,294.766667 136.833333,297.066667 135.5,298.8 C134.166667,300.533333 132.766667,301.4 131.3,301.4 Z M175.5,257.8 C178.366667,257.8 180.666667,257.016667 182.4,255.45 C184.133333,253.883333 185,251.766667 185,249.1 C185,246.9 184.233333,245.2 182.7,244 C181.166667,242.8 179.166667,242.2 176.7,242.2 C173.966667,242.2 171.683333,242.983333 169.85,244.55 C168.016667,246.116667 167.1,248.066667 167.1,250.4 C167.1,252.733333 167.8,254.55 169.2,255.85 C170.6,257.15 172.7,257.8 175.5,257.8 Z M174.7,311.5 C180.433333,311.5 186.6,307.466667 193.2,299.4 C194.466667,297.933333 195.1,295.866667 195.1,293.2 C195.1,291.8 194.85,290.7 194.35,289.9 C193.85,289.1 193.166667,288.7 192.3,288.7 C191.3,288.7 190.4,289.166667 189.6,290.1 C186.6,293.7 184.2,296.333333 182.4,298 C180.6,299.666667 179.1,300.5 177.9,300.5 C176.633333,300.5 175.733333,299.966667 175.2,298.9 C174.666667,297.833333 174.4,296.3 174.4,294.3 C174.4,291.7 175.2,286.733333 176.8,279.4 C178.066667,273.333333 178.7,269.466667 178.7,267.8 C178.7,265.533333 177,264.4 173.6,264.4 C171.4,264.4 169.8,264.8 168.8,265.6 C167.8,266.4 167,267.866667 166.4,270 C165.2,274.066667 164.216667,278.45 163.45,283.15 C162.683333,287.85 162.3,291.7 162.3,294.7 C162.3,299.766667 163.283333,303.833333 165.25,306.9 C167.216667,309.966667 170.366667,311.5 174.7,311.5 Z M205,311.5 C209.266667,311.5 213.083333,310.366667 216.45,308.1 C219.816667,305.833333 222.933333,302.933333 225.8,299.4 C227.066667,297.933333 227.7,295.866667 227.7,293.2 C227.7,291.8 227.45,290.7 226.95,289.9 C226.45,289.1 225.766667,288.7 224.9,288.7 C223.9,288.7 223,289.166667 222.2,290.1 C219,293.9 216.366667,296.583333 214.3,298.15 C212.233333,299.716667 209.833333,300.5 207.1,300.5 C205.366667,300.5 203.966667,299.916667 202.9,298.75 C201.833333,297.583333 201.066667,295.633333 200.6,292.9 C208.133333,282.633333 214.1,272.266667 218.5,261.8 C222.9,251.333333 225.1,242.133333 225.1,234.2 C225.1,228.666667 224.183333,224.416667 222.35,221.45 C220.516667,218.483333 218,217 214.8,217 C209.133333,217 204.25,220.733333 200.15,228.2 C196.05,235.666667 192.95,244.6 190.85,255 C188.75,265.4 187.7,274.666667 187.7,282.8 C187.7,291.266667 189.116667,298.166667 191.95,303.5 C194.783333,308.833333 199.133333,311.5 205,311.5 Z M199.9,279.4 C200.033333,271.866667 200.833333,264 202.3,255.8 C203.766667,247.6 205.466667,240.733333 207.4,235.2 C209.333333,229.666667 211.066667,226.9 212.6,226.9 C214.466667,226.9 215.4,229.433333 215.4,234.5 C215.4,240.966667 214,248.116667 211.2,255.95 C208.4,263.783333 204.633333,271.6 199.9,279.4 Z M236.5,311.5 C240.5,311.5 244.15,310.383333 247.45,308.15 C250.75,305.916667 253.366667,302.816667 255.3,298.85 C257.233333,294.883333 258.2,290.366667 258.2,285.3 C258.2,281.633333 257.5,278.2 256.1,275 C254.7,271.8 252.6,269.216667 249.8,267.25 C247,265.283333 243.633333,264.3 239.7,264.3 C235.633333,264.3 231.966667,265.416667 228.7,267.65 C225.433333,269.883333 222.85,272.983333 220.95,276.95 C219.05,280.916667 218.1,285.433333 218.1,290.5 C218.1,294.166667 218.8,297.6 220.2,300.8 C221.6,304 223.683333,306.583333 226.45,308.55 C229.216667,310.516667 232.566667,311.5 236.5,311.5 Z M237.6,300.7 C235.6,300.7 233.933333,299.8 232.6,298 C231.266667,296.2 230.6,293.4 230.6,289.6 C230.6,284.8 231.383333,281.183333 232.95,278.75 C234.516667,276.316667 236.5,275.1 238.9,275.1 C240.766667,275.1 242.366667,276.033333 243.7,277.9 C245.033333,279.766667 245.7,282.533333 245.7,286.2 C245.7,290.933333 244.916667,294.533333 243.35,297 C241.783333,299.466667 239.866667,300.7 237.6,300.7 Z" id="lailo"></path>
        </g>
    </g>
</svg>